<?xml version="1.0" encoding="UTF-8" standalone="no"?>
<!-- Created with Inkscape (http://www.inkscape.org/) -->

<svg
   xmlns:dc="http://purl.org/dc/elements/1.1/"
   xmlns:cc="http://creativecommons.org/ns#"
   xmlns:rdf="http://www.w3.org/1999/02/22-rdf-syntax-ns#"
   xmlns:svg="http://www.w3.org/2000/svg"
   xmlns="http://www.w3.org/2000/svg"
   xmlns:sodipodi="http://sodipodi.sourceforge.net/DTD/sodipodi-0.dtd"
   xmlns:inkscape="http://www.inkscape.org/namespaces/inkscape"
   width="553.58606"
   height="133.94133"
   viewBox="0 0 146.46964 35.438643"
   version="1.1"
   id="svg7397"
   inkscape:version="0.92.0 r15299"
   sodipodi:docname="aarons.svg">
  <defs
     id="defs7391">
    <clipPath
       id="clipPath110"
       clipPathUnits="userSpaceOnUse">
      <path
         inkscape:connector-curvature="0"
         id="path108"
         d="m 45.814,1486.961 h 414.13 v 101.265 H 45.814 Z" />
    </clipPath>
  </defs>
  <sodipodi:namedview
     id="base"
     pagecolor="#ffffff"
     bordercolor="#666666"
     borderopacity="1.0"
     inkscape:pageopacity="0.0"
     inkscape:pageshadow="2"
     inkscape:zoom="1.4539889"
     inkscape:cx="275.79304"
     inkscape:cy="65.970677"
     inkscape:document-units="mm"
     inkscape:current-layer="layer1"
     showgrid="false"
     fit-margin-top="0"
     fit-margin-left="0"
     fit-margin-right="0"
     fit-margin-bottom="0"
     units="px"
     inkscape:window-width="1280"
     inkscape:window-height="744"
     inkscape:window-x="-4"
     inkscape:window-y="-4"
     inkscape:window-maximized="1" />
  <metadata
     id="metadata7394">
    <rdf:RDF>
      <cc:Work
         rdf:about="">
        <dc:format>image/svg+xml</dc:format>
        <dc:type
           rdf:resource="http://purl.org/dc/dcmitype/StillImage" />
        <dc:title></dc:title>
      </cc:Work>
    </rdf:RDF>
  </metadata>
  <g
     inkscape:label="Layer 1"
     inkscape:groupmode="layer"
     id="layer1"
     transform="translate(-16.988093,-153.87653)">
    <g
       id="g7760"
       transform="translate(0.26458412,-0.26458133)">
      <g
         transform="matrix(0.35277777,0,0,-0.35277777,17.431168,186.87148)"
         id="g236">
        <path
           inkscape:connector-curvature="0"
           id="path238"
           style="fill:#ffffff;fill-opacity:1;fill-rule:nonzero;stroke:none"
           d="M 0,0 C -1.697,3.03 -1.673,6.749 0.064,9.948 L 41.626,86.26 c 1.937,3.559 5.604,5.769 9.57,5.769 h 30.526 c 4.823,0 8.875,-3.418 9.632,-8.128 0,-0.004 4.089,-25.281 4.089,-25.281 l 3.509,3.243 c 6.686,6.186 14.659,9.455 23.058,9.455 3.947,0 7.665,-0.754 11.054,-2.242 l 0.921,-0.403 0.95,0.329 c 1.169,0.405 2.315,0.611 3.407,0.611 h 25.078 l 1.893,-0.192 0.581,0.027 1.643,0.165 h 25.39 c 1.143,0 2.298,-0.22 3.431,-0.653 l 0.935,-0.357 0.93,0.371 c 4.719,1.881 9.62,2.624 14.566,2.206 2.788,-0.241 5.333,-1.641 6.979,-3.839 0.074,-0.136 0.255,-0.455 0.255,-0.455 l 1.213,-2.128 2.153,1.168 c 6.993,3.578 14.501,5.392 22.316,5.392 8.347,0 15.655,-2.017 21.72,-5.995 l 1.87,-1.227 1.469,1.687 c 2.119,2.434 5.109,3.83 8.203,3.83 h 25.39 c 1.108,0 2.249,-0.213 3.39,-0.632 l 0.92,-0.34 0.912,0.364 c 3.854,1.536 7.846,2.313 11.867,2.313 2.859,0 5.643,-0.367 8.272,-1.091 l 2.574,-0.711 1.139,4.907 c 1.145,4.953 5.606,8.539 10.61,8.539 h 13.453 c 3.559,0 6.715,-1.79 8.441,-4.787 0.81,-1.385 1.26,-2.981 1.307,-4.629 l 0.076,-2.706 3.301,0.274 3.61,0.204 c 9.188,0 17.374,-1.797 24.332,-5.341 2.424,-1.237 4.216,-3.477 4.915,-6.145 0.204,-0.814 0.311,-1.668 0.311,-2.508 0,-1.883 -0.507,-3.745 -1.464,-5.385 -0.003,-0.005 -6.958,-11.946 -6.958,-11.946 l 0.923,-1.34 c 2.22,-3.219 3.345,-6.979 3.345,-11.177 0,-1.602 -0.158,-3.225 -0.486,-4.962 -3.258,-17.336 -20.175,-29.441 -41.138,-29.441 -7.451,0 -14.702,1.333 -21.555,3.961 l -1.193,0.456 -1.084,-0.676 c -1.794,-1.124 -3.739,-1.716 -5.622,-1.716 h -26.156 c -1.044,0 -2.153,0.208 -3.298,0.616 l -0.842,0.298 -0.846,-0.288 c -1.215,-0.414 -2.374,-0.626 -3.446,-0.626 h -26.252 c -2.851,0 -5.543,1.226 -7.387,3.359 l -1.35,1.564 -1.817,-0.988 c -7.26,-3.956 -15.134,-5.96 -23.404,-5.96 -11.014,0 -20.359,3.572 -27.025,10.336 -2.96,2.999 -5.267,6.494 -6.859,10.394 l -3.291,8.064 -3.333,-17.814 c -0.961,-5.106 -5.561,-8.955 -10.702,-8.955 h -26.263 l -1.849,0.198 -0.649,-0.027 -1.607,-0.171 h -24.121 c -1.164,0 -2.362,0.236 -3.563,0.702 l -0.979,0.378 -0.963,-0.415 c -4.132,-1.784 -8.334,-2.69 -12.489,-2.69 -4.034,0 -7.93,0.883 -11.581,2.623 L 97.5,-3.837 96.481,-4.217 C 95.27,-4.672 94.08,-4.902 92.948,-4.902 H 63.48 c -4.609,0 -8.512,3.124 -9.491,7.596 l -0.44,2.015 H 49.262 L 47.981,1.784 C 46.255,-2.224 42.235,-4.902 37.969,-4.902 H 8.512 C 4.958,-4.902 1.697,-3.024 0,0" />
      </g>
      <g
         transform="matrix(0.35277777,0,0,-0.35277777,158.92067,165.98241)"
         id="g240">
        <path
           inkscape:connector-curvature="0"
           id="path242"
           style="fill:#264392;fill-opacity:1;fill-rule:nonzero;stroke:none"
           d="m 0,0 c -0.517,1.985 -1.826,3.632 -3.643,4.557 -6.6,3.364 -14.404,5.075 -23.2,5.075 -3.989,0 -7.81,-0.495 -11.4,-1.384 l 1.032,2.037 c 1.253,2.41 1.227,5.215 -0.063,7.426 -1.283,2.221 -3.657,3.558 -6.305,3.558 h -13.453 c -3.842,0 -7.317,-2.795 -8.189,-6.601 l -1.842,-7.999 c -3.505,1.952 -7.743,2.963 -12.563,2.963 -4.552,0 -8.869,-1.001 -12.974,-2.973 -1.184,0.8 -2.589,1.262 -4.116,1.262 h -25.39 c -3.978,0 -7.536,-2.967 -8.274,-6.915 l -0.103,-0.537 c -6.164,5.974 -14.738,9.163 -24.885,9.163 -9.569,0 -18.732,-2.89 -26.6,-8.315 0.243,1.92 -0.21,3.825 -1.337,5.331 -1.215,1.641 -3.1,2.668 -5.189,2.847 -5.442,0.463 -10.599,-0.532 -15.463,-2.88 -1.2,0.828 -2.637,1.306 -4.189,1.306 h -25.39 c -0.725,0 -1.41,-0.126 -2.084,-0.305 -0.641,0.179 -1.326,0.305 -2.031,0.305 h -25.08 c -1.552,0 -3.015,-0.462 -4.304,-1.247 -3.48,1.953 -7.49,2.958 -12.026,2.958 -11.301,0 -21.321,-6.3 -28.027,-16.721 l -5.073,31.378 c -0.574,3.543 -3.558,6.049 -7.19,6.049 h -30.526 c -3.026,0 -5.911,-1.743 -7.4,-4.486 l -41.563,-76.309 c -1.315,-2.427 -1.347,-5.268 -0.068,-7.537 1.268,-2.268 3.669,-3.633 6.347,-3.633 h 29.458 c 3.3,0 6.389,2.059 7.737,5.17 l 1.915,4.431 h 8.4 l 0.19,-2.858 c 0.274,-3.863 3.368,-6.743 7.269,-6.743 h 29.468 c 1.599,0 3.168,0.527 4.526,1.418 3.641,-2.247 7.947,-3.452 12.589,-3.452 4.726,0 9.253,1.158 13.652,3.44 1.222,-0.9 2.738,-1.406 4.343,-1.406 h 24.121 c 0.715,0 1.405,0.122 2.073,0.303 0.653,-0.181 1.336,-0.303 2.031,-0.303 h 26.263 c 3.969,0 7.516,2.977 8.259,6.912 l 4.015,21.347 c 0.495,2.637 1.464,3.437 4.137,3.437 0.021,0 0.379,-0.038 1.052,-0.29 -0.636,-9.103 2.344,-17.63 8.474,-23.83 6.189,-6.286 14.937,-9.61 25.274,-9.61 9.737,0 18.957,2.934 26.752,8.43 0.17,-1.39 0.659,-2.705 1.542,-3.779 1.369,-1.668 3.421,-2.617 5.663,-2.617 h 26.253 c 1.557,0 3.042,0.469 4.325,1.259 1.191,-0.794 2.6,-1.259 4.106,-1.259 h 26.158 c 2.357,0 4.573,1.07 6.137,2.765 7.116,-3.168 14.93,-4.799 23.316,-4.799 19.758,0 35.669,11.279 38.704,27.413 0.99,5.301 0.578,11.633 -4.436,16.654 l 7.91,13.568 C 0.205,-4.158 0.521,-1.984 0,0" />
      </g>
      <g
         transform="matrix(0.35277777,0,0,-0.35277777,39.34082,175.17319)"
         id="g244">
        <path
           inkscape:connector-curvature="0"
           id="path246"
           style="fill:#ffffff;fill-opacity:1;fill-rule:nonzero;stroke:none"
           d="m 0,0 -0.716,8.653 c -0.436,5.647 -0.8,11.09 0.052,16.748 H -1.2 C -2.473,19.743 -4.885,14.3 -7.448,8.653 L -11.421,0 Z m -11.474,48.568 h 30.526 l 12.343,-76.32 H 1.942 l -0.658,9.6 h -20.705 l -4.153,-9.6 h -29.458 z" />
      </g>
      <g
         transform="matrix(0.35277777,0,0,-0.35277777,61.419099,178.11056)"
         id="g248">
        <path
           inkscape:connector-curvature="0"
           id="path250"
           style="fill:#ffffff;fill-opacity:1;fill-rule:nonzero;stroke:none"
           d="m 0,0 c 4.058,0 7.284,2.99 8.162,7.69 0.886,4.695 -1.198,7.783 -5.253,7.783 -3.952,0 -7.315,-3.088 -8.188,-7.783 C -6.169,2.99 -3.942,0 0,0 m 5.447,-11.316 c -6.41,-6.831 -12.578,-10.14 -19.516,-10.14 -12.062,0 -19.684,11.109 -16.421,28.504 3.39,18.036 14.663,29.137 27.253,29.137 6.726,0 11.526,-2.884 14.99,-8.858 l 1.346,7.147 H 38.173 L 28.047,-19.425 H 3.932 Z" />
      </g>
      <g
         transform="matrix(0.35277777,0,0,-0.35277777,76.335742,165.94886)"
         id="g252">
        <path
           inkscape:connector-curvature="0"
           id="path254"
           style="fill:#ffffff;fill-opacity:1;fill-rule:nonzero;stroke:none"
           d="m 0,0 h 25.401 l -1.428,-7.579 c 6.201,6.831 12.948,9.827 20.411,9.184 l -4.916,-26.146 c -2.495,1.489 -4.79,2.341 -6.926,2.341 -6.621,0 -11.158,-3.731 -12.4,-10.357 l -4.011,-21.342 h -26.263 z" />
      </g>
      <g
         transform="matrix(0.35277777,0,0,-0.35277777,104.26071,175.51108)"
         id="g256">
        <path
           inkscape:connector-curvature="0"
           id="path258"
           style="fill:#ffffff;fill-opacity:1;fill-rule:nonzero;stroke:none"
           d="m 0,0 c 0.842,4.474 -1.179,7.363 -5.016,7.363 -3.841,0 -6.953,-2.889 -7.789,-7.363 -0.842,-4.483 1.178,-7.368 5.02,-7.368 3.737,0 6.949,2.885 7.785,7.368 m 11.042,-21.353 c -6.585,-4.911 -14.426,-7.472 -22.863,-7.472 -8.427,0 -15.205,2.561 -20.047,7.472 -5.379,5.447 -7.548,13.233 -6.015,21.353 1.54,8.217 6.615,15.905 14.035,21.342 6.695,4.91 14.433,7.475 22.859,7.475 8.442,0 15.326,-2.565 20.152,-7.475 C 24.553,15.905 26.61,8.105 25.088,0 23.547,-8.226 18.49,-15.8 11.042,-21.353" />
      </g>
      <g
         transform="matrix(0.35277777,0,0,-0.35277777,115.64397,165.94886)"
         id="g260">
        <path
           inkscape:connector-curvature="0"
           id="path262"
           style="fill:#ffffff;fill-opacity:1;fill-rule:nonzero;stroke:none"
           d="m 0,0 h 25.4 l -1.406,-7.469 c 5.648,6.184 11.659,9.18 18.49,9.18 11.422,0 17.29,-7.369 15.033,-19.427 L 50.716,-53.899 H 24.558 l 5.117,27.221 c 0.904,4.794 0.573,7.042 -2.406,7.042 -3.095,0 -5.143,-2.348 -6.026,-7.042 l -5.106,-27.221 h -26.273 z" />
      </g>
      <g
         transform="matrix(0.35277777,0,0,-0.35277777,139.43999,168.84729)"
         id="g264">
        <path
           inkscape:connector-curvature="0"
           id="path266"
           style="fill:#ffffff;fill-opacity:1;fill-rule:nonzero;stroke:none"
           d="m 0,0 h -7.326 l 4.968,21.563 h 13.442 z" />
      </g>
      <g
         transform="matrix(0.35277777,0,0,-0.35277777,139.09448,177.7315)"
         id="g268">
        <path
           inkscape:connector-curvature="0"
           id="path270"
           style="fill:#ffffff;fill-opacity:1;fill-rule:nonzero;stroke:none"
           d="m 0,0 c 5.22,-4.069 9.657,-5.99 12.957,-5.99 2.789,0 4.506,1.184 4.864,3.102 0.483,2.556 -2.316,2.456 -6.495,3.52 C 1.862,3.083 -1.863,7.673 -0.32,15.905 1.727,26.79 13.11,35.111 28.805,35.111 c 7.362,0 14.153,-1.39 19.794,-4.27 L 39.142,14.616 c -4.195,3.199 -7.826,4.91 -10.706,4.91 -2.457,0 -4.174,-1.174 -4.479,-2.779 -0.431,-2.348 2.4,-2.558 7.717,-3.837 9.778,-2.458 13.937,-7.047 12.451,-14.948 -2.189,-11.624 -13.878,-20.493 -30.426,-20.493 -8.857,0 -16.805,2.032 -23.768,5.873 z" />
      </g>
      <g
         style="fill:#264392;fill-opacity:1"
         transform="matrix(0.35277777,0,0,-0.35277777,160.41397,161.08878)"
         id="g272">
        <path
           inkscape:connector-curvature="0"
           id="path274"
           style="fill:#264392;fill-opacity:1;fill-rule:nonzero;stroke:none"
           d="m 0,0 h 0.679 c 0.84,0 1.489,0.271 1.489,0.976 0,0.569 -0.406,1.002 -1.382,1.002 -0.351,0 -0.595,0 -0.786,-0.027 z m 0,-3.902 h -1.437 v 6.774 c 0.544,0.082 1.14,0.191 2.17,0.191 1.164,0 1.869,-0.191 2.331,-0.543 0.379,-0.299 0.595,-0.758 0.595,-1.463 0,-0.813 -0.569,-1.382 -1.3,-1.572 V -0.569 C 2.953,-0.678 3.333,-1.22 3.443,-2.223 3.577,-3.28 3.713,-3.685 3.822,-3.902 H 2.33 C 2.168,-3.659 2.06,-3.063 1.926,-2.141 1.817,-1.409 1.383,-1.11 0.649,-1.11 H 0 Z m 1.03,8.427 c -2.547,0 -4.607,-2.195 -4.607,-4.905 0,-2.736 2.06,-4.877 4.635,-4.877 2.575,-0.028 4.66,2.141 4.66,4.877 0,2.71 -2.085,4.905 -4.66,4.905 z m 0.055,1.22 c 3.36,0 6.043,-2.738 6.043,-6.097 0,-3.416 -2.683,-6.125 -6.07,-6.125 -3.361,0 -6.098,2.709 -6.098,6.125 0,3.359 2.737,6.097 6.098,6.097 z" />
      </g>
    </g>
  </g>
</svg>
