<svg fill="none" xmlns="http://www.w3.org/2000/svg" viewBox="0.43 8.18 277.25 28.63">
    <path d="M13.1343 25.952V33.4624C13.1343 35.3147 13.067 35.3484 13.0333 35.4157L12.8312 35.6515C12.7639 35.7188 12.6291 35.8535 12.4944 35.8872L12.2587 36.0219L12.1576 36.0556L12.0903 36.0893V36.1567H17.782V36.0893H17.6809L17.4452 35.9209L17.1084 35.6515L16.94 35.3147C16.9063 35.3147 16.839 35.281 16.839 32.4183V18.0039L11.9556 22.8873C12.2924 22.7526 12.7302 22.8199 12.9659 23.0894C13.168 23.3588 13.168 23.864 13.168 25.9857" fill="black" style="--darkreader-inline-fill: #000000;" data-darkreader-inline-fill=""/>
    <path fill-rule="evenodd" clip-rule="evenodd" d="M0.437988 22.3477L0.505345 20.8995L13.1348 8.27008C14.2896 8.15278 15.4543 8.1754 16.6037 8.33744L0.572703 24.3684C0.505345 23.6949 0.437988 23.0213 0.437988 22.3477ZM5.35506 33.0238C4.72058 32.4808 4.1346 31.8836 3.60377 31.2389L11.3162 23.5265C11.653 23.3918 12.2255 23.4591 12.4276 23.7285C12.596 23.9643 12.596 24.1327 12.596 25.7493L5.35506 33.0238ZM23.4741 11.3685C24.1477 11.8737 24.7539 12.4799 25.2928 13.1198L17.513 20.8659V17.397L23.4741 11.3685ZM20.7462 9.61722C21.5208 9.98769 22.2617 10.4592 22.969 10.9644L3.19963 30.7337C2.69445 30.0601 2.22295 29.2855 1.85249 28.5109L20.7462 9.61722ZM17.412 8.50583C18.3213 8.67422 19.2306 8.97733 20.1063 9.31411L1.58306 27.8373C1.2126 26.9954 0.909488 26.086 0.741095 25.143L17.412 8.50583ZM0.673738 19.7881C1.1928 16.9692 2.55603 14.3744 4.58286 12.3476C6.60968 10.3208 9.20444 8.95753 12.0234 8.43847L0.673738 19.7881Z" fill="#6FBE4A" style="--darkreader-inline-fill: #629234;" data-darkreader-inline-fill=""/>
    <path fill-rule="evenodd" clip-rule="evenodd" d="M25.6297 31.0031C25.1245 31.6767 24.5183 32.2829 23.9121 32.8555L17.4795 26.4565V22.8529L25.6297 31.0031ZM27.4147 28.3762C27.0442 29.1508 26.6737 29.8244 26.1686 30.5316L17.5132 21.8426L19.1971 20.1586L27.4147 28.3762ZM28.5261 25.042C28.324 25.9514 28.0546 26.8607 27.6841 27.7363L19.6349 19.6871L21.4199 17.9359L28.5261 25.042ZM24.1142 15.2079L25.7307 13.625C27.0779 15.3426 28.0882 17.3633 28.5261 19.6198L24.1142 15.2079ZM23.6427 15.6794L28.6945 20.7312C28.8267 21.8957 28.8154 23.072 28.6608 24.2337L21.8914 17.4644L23.6427 15.6794Z" fill="#00954C" style="--darkreader-inline-fill: #00773d;" data-darkreader-inline-fill=""/>
    <path d="M202.34 18.6103L198.703 36.1568H191.058L194.661 18.644H187.589L188.868 12.5818H210.625L209.379 18.6103H202.34ZM261.951 30.4988H272.055L270.909 36.1231H253.06L257.943 12.5481H275.456L274.311 18.1725H264.511L263.837 21.3383H272.93L271.785 26.9626H262.692L261.951 30.4988ZM240.632 30.4988H250.77L249.625 36.1568H231.775L236.658 12.5818L254.171 12.5481L253.026 18.1725H243.226L242.552 21.3383H251.645L250.467 26.9626H241.373L240.632 30.4988ZM218.472 21.9781H221.436C222.116 21.997 222.777 21.7513 223.279 21.2927C223.782 20.8341 224.087 20.1985 224.13 19.5196C224.13 19.1155 223.995 18.846 223.793 18.6103C223.625 18.4082 223.456 18.2061 222.446 18.2061H219.28L218.472 21.9781ZM217.327 27.6361L215.542 36.1568H207.863L212.78 12.5818H224.029C227.835 12.5818 228.946 13.0533 229.889 13.7606C231.101 14.6699 231.775 16.0844 231.775 17.7346C231.772 19.1775 231.341 20.587 230.538 21.7857C229.735 22.9844 228.595 23.9185 227.262 24.4704C228.542 25.2786 229.215 26.5584 229.182 28.175V28.6465L228.912 32.3511V32.9574C228.921 33.7486 229 34.5375 229.148 35.3149L229.316 36.1568H221.436L221.301 35.5843C221.2 35.1801 221.099 34.776 221.099 34.0688C221.099 33.732 221.099 33.3278 221.166 32.789L221.503 29.0843V28.8149C221.503 28.0066 221.166 27.6361 220.055 27.6361H217.327ZM92.7161 30.162H102.213L100.967 36.1568H83.7913L88.6747 12.5818H96.3197L92.7161 30.162ZM112.081 30.1284H121.612L120.366 36.1905H103.19L108.074 12.5481H115.719L112.081 30.1284ZM70.3872 30.903C72.1722 30.903 74.7655 29.5558 75.8432 24.2683C76.0452 23.2579 76.1463 22.3823 76.1463 21.6414C76.1463 18.6776 74.6981 17.9367 73.2836 17.9367C71.3976 17.9367 68.838 19.2839 67.7266 24.6051C67.4909 25.6491 67.3898 26.5584 67.3898 27.2994C67.3898 30.162 68.737 30.903 70.4209 30.903H70.3872ZM69.4106 36.7967H69.3095C68.5516 36.8356 67.792 36.7676 67.0531 36.5947L66.9183 36.561C64.7938 36.2975 62.8582 35.2088 61.5298 33.5299C60.2898 31.8471 59.6602 29.7921 59.7448 27.7035C59.7448 26.6258 59.8795 25.447 60.149 24.1336C61.6982 16.6569 67.1878 12.043 74.0919 12.043C77.8976 12.043 80.154 13.1544 81.7369 14.973C83.0167 16.4549 83.825 18.4419 83.825 21.1362C83.825 22.2476 83.6903 23.46 83.4208 24.8071C82.8309 27.9156 81.2891 30.7638 79.0089 32.9574C77.7642 34.2204 76.2724 35.2133 74.6267 35.8738C72.981 36.5344 71.2168 36.8486 69.4442 36.7967H69.4106ZM42.1646 30.5325H43.7812C45.8019 30.4988 47.2501 29.8253 48.3951 28.6128C49.9293 26.9397 50.7823 24.7533 50.7863 22.4833C50.7863 19.688 49.2034 18.2735 46.5765 18.2735H44.6905L42.1646 30.5325ZM33.3071 36.1905L38.1905 12.6155L49.3718 12.5818C52.807 12.5818 55.6697 14.0637 57.0505 16.017C57.9262 17.2631 58.4987 19.0818 58.4987 21.3383C58.4987 22.2813 58.3977 23.3253 58.1619 24.4367C57.5701 27.8656 55.8088 30.9836 53.1775 33.2605C50.7864 35.2378 47.7583 36.279 44.6568 36.1905H33.3071ZM162.06 21.9445H164.99C165.673 21.972 166.338 21.7292 166.843 21.2689C167.347 20.8086 167.65 20.1679 167.685 19.4859C167.685 19.1491 167.584 18.8124 167.382 18.6103C167.213 18.4082 167.045 18.2061 166.034 18.2061H162.835L162.06 21.9445ZM160.915 27.6025L159.13 36.1568H151.485L156.335 12.5481H167.617C171.423 12.5481 172.501 13.0533 173.477 13.7606C174.656 14.6362 175.33 16.0507 175.33 17.7346C175.331 19.1785 174.902 20.59 174.099 21.7895C173.295 22.989 172.152 23.9222 170.817 24.4704C172.097 25.2786 172.77 26.5584 172.77 28.175V28.6465L172.501 32.3511V32.9574C172.501 33.4625 172.501 34.1361 172.736 35.2812L172.871 36.1568H165.024L164.889 35.5843C164.788 35.1465 164.687 34.776 164.687 34.0351C164.687 33.6983 164.687 33.2941 164.755 32.789L165.058 29.0843V28.8149C165.058 28.0066 164.755 27.6025 163.643 27.6025H160.915ZM135.926 26.0196H139.63L138.957 20.3279C138.182 21.9445 137.206 23.7631 135.926 26.0196ZM132.693 31.6439L130.099 36.1568H122.454L136.801 12.5818L144.851 12.5481L149.296 36.1231H141.314L140.573 31.6439H132.693ZM274.547 33.2605H274.985C275.456 33.2605 275.658 33.1258 275.658 32.789C275.658 32.4522 275.422 32.3175 274.951 32.3175H274.547V33.2605ZM275.052 31.9133C275.928 31.9133 276.332 32.2164 276.332 32.7216C276.332 33.1594 276.096 33.4625 275.658 33.5636L276.332 34.9107H275.624L275.018 33.6646H274.547V34.9107H273.907V31.8796L275.052 31.9133ZM273.402 31.8123C272.974 32.2415 272.734 32.8229 272.734 33.4289C272.734 34.0349 272.974 34.6162 273.402 35.0454C273.806 35.4833 274.412 35.719 274.951 35.719C275.624 35.719 276.163 35.5169 276.635 35.0454C277.039 34.675 277.308 34.1024 277.308 33.4962C277.321 33.0383 277.196 32.5872 276.949 32.2012C276.703 31.8151 276.346 31.5118 275.926 31.3305C275.505 31.1492 275.04 31.0982 274.59 31.1841C274.14 31.27 273.726 31.4888 273.402 31.8123ZM276.938 31.5765C277.409 32.0817 277.679 32.7553 277.679 33.4625C277.679 34.2035 277.409 34.877 276.904 35.3485C276.399 35.8524 275.715 36.1354 275.001 36.1354C274.288 36.1354 273.604 35.8524 273.099 35.3485C272.595 34.8435 272.312 34.1591 272.312 33.4457C272.312 32.7323 272.595 32.0479 273.099 31.5429C273.343 31.2914 273.637 31.0929 273.961 30.9597C274.286 30.8264 274.634 30.7613 274.985 30.7683C275.725 30.7683 276.399 31.0377 276.938 31.5765Z" fill="#00954C" style="--darkreader-inline-fill: #00773d;" data-darkreader-inline-fill=""/>
</svg>